<?xml version="1.0" encoding="utf-8"?>
<!-- Generator: Adobe Illustrator 16.0.4, SVG Export Plug-In . SVG Version: 6.00 Build 0)  -->
<!DOCTYPE svg PUBLIC "-//W3C//DTD SVG 1.1//EN" "http://www.w3.org/Graphics/SVG/1.1/DTD/svg11.dtd">
<svg version="1.1" id="pfade" xmlns="http://www.w3.org/2000/svg" xmlns:xlink="http://www.w3.org/1999/xlink" x="0px" y="0px"
	 width="80px" height="80px" viewBox="0 0 80 80" enable-background="new 0 0 80 80" xml:space="preserve">
<g>
	
		<polygon fill="none" stroke="#4794DA" stroke-width="2" stroke-linecap="round" stroke-linejoin="round" stroke-miterlimit="10" points="
		67.367,61.487 16.81,61.487 42.178,18.513 	"/>
	<g>
		<path fill="#4794DA" d="M42.088,54.538c-1.387,0-2.455-1.126-2.455-2.423c0-1.388,1.068-2.458,2.455-2.458
			c1.357,0,2.427,1.098,2.427,2.458C44.515,53.412,43.417,54.538,42.088,54.538z M43.504,45.964
			c-0.059,0.549-0.174,0.522-0.606,0.522h-1.646c-0.434,0-0.55,0.026-0.607-0.522l-0.636-11.27
			c-0.028-0.491-0.028-0.533-0.028-0.703c0-0.378,0.288-0.505,0.52-0.505h3.091c0.231,0,0.577,0.14,0.577,0.516
			c0,0.173,0,0.129-0.028,0.621L43.504,45.964z"/>
	</g>
</g>
</svg>
