<?xml version="1.0" encoding="utf-8"?>
<!-- Generator: Adobe Illustrator 16.0.4, SVG Export Plug-In . SVG Version: 6.00 Build 0)  -->
<!DOCTYPE svg PUBLIC "-//W3C//DTD SVG 1.1//EN" "http://www.w3.org/Graphics/SVG/1.1/DTD/svg11.dtd">
<svg version="1.1" id="pfade" xmlns="http://www.w3.org/2000/svg" xmlns:xlink="http://www.w3.org/1999/xlink" x="0px" y="0px"
	 width="80px" height="80px" viewBox="0 0 80 80" enable-background="new 0 0 80 80" xml:space="preserve">
<g>
	
		<polyline fill="none" stroke="#000000" stroke-width="2" stroke-linecap="round" stroke-linejoin="round" stroke-miterlimit="10" points="
		18.535,23.818 25.809,23.826 25.289,40.002 18.519,39.885 	"/>
	
		<line fill="none" stroke="#000000" stroke-width="2" stroke-linecap="round" stroke-linejoin="round" stroke-miterlimit="10" x1="20.757" y1="32.733" x2="20.703" y2="36.185"/>
	<path fill="none" stroke="#000000" stroke-width="2" stroke-linecap="round" stroke-linejoin="round" stroke-miterlimit="10" d="
		M26.564,25.263H33.3l18.736,9.087l5.222,15.45c0,0,0.637,1.494-0.966,2.285c-1.557,0.768-2.468-0.915-2.468-0.915l-6.226-10.692
		l0.141,5.212l-7.502,2.396l-5.178-4.024l-4.015-7.405h-5.229"/>
	<path fill="none" stroke="#000000" stroke-width="2" stroke-linecap="round" stroke-linejoin="round" stroke-miterlimit="10" d="
		M60.231,46.532c0.605,0.782,1.025,1.726,1.182,2.772c0.491,3.271-1.762,6.319-5.032,6.81c-3.271,0.491-6.319-1.762-6.81-5.032"/>
</g>
</svg>
