<?xml version="1.0" encoding="UTF-8"?>
<svg width="80px" height="80px" viewBox="0 0 80 80" version="1.1" xmlns="http://www.w3.org/2000/svg" xmlns:xlink="http://www.w3.org/1999/xlink">
    <!-- Generator: Sketch 59.1 (86144) - https://sketch.com -->
    <title>icons/tc/safety-active</title>
    <desc>Created with Sketch.</desc>
    <defs>
        <linearGradient x1="50%" y1="50%" x2="100%" y2="100%" id="linearGradient-1">
            <stop stop-color="#EFF1F3" offset="0%"></stop>
            <stop stop-color="#AEB9C2" offset="100%"></stop>
        </linearGradient>
    </defs>
    <g id="20191023-lieferung-icons-aus-tc-bereich" stroke="none" stroke-width="1" fill="none" fill-rule="evenodd">
        <g id="Icons-and-Buttons" transform="translate(-1008.000000, -705.000000)">
            <g id="icons/tc/safety" transform="translate(1008.000000, 705.000000)">
                <g id="backgrounds" fill="url(#linearGradient-1)" fill-opacity="0.01">
                    <rect id="normal" x="0" y="0" width="80" height="80"></rect>
                </g>
                <g id="icon-status-copy" transform="translate(19.000000, 15.000000)" fill="#FFFFFF">
                    <g id="normal">
                        <g id="icon-base">
                            <path d="M18.6756757,-1.42108547e-14 C20.2433858,-1.42108547e-14 21.7934009,0.142619949 23.3122876,0.423828741 C23.7468045,0.504275809 24.0720143,0.858396976 24.1231984,1.28817827 L24.1302399,1.40711845 L24.1302399,7.72425342 L26.0366118,8.47104809 L30.294026,3.70723635 C30.6122556,3.35115489 31.1378529,3.26978042 31.5488617,3.51295908 C34.3841841,5.19051399 36.8702065,7.40912359 38.8606624,10.0343761 C39.1386276,10.40099 39.1280111,10.904415 38.8493256,11.2575016 L38.7666896,11.3498548 L34.2362671,15.8266131 L35.632338,18.6090347 L42.8987579,18.6090347 C43.3369779,18.6090347 43.7241461,18.8943522 43.85391,19.3129189 C44.4067861,21.0962776 44.4067861,28.2549452 43.8711294,30.4861805 C43.7721905,30.8983026 43.4260901,31.1989917 43.0129572,31.2462446 L42.8987579,31.2527416 L35.6170957,31.2527416 L34.7085117,32.9674079 L39.7589631,37.8528829 C40.1032094,38.1858842 40.1630069,38.7162143 39.9015567,39.117511 C38.0622539,41.9406336 35.6743822,44.3749488 32.8874934,46.2687469 C32.536674,46.5071422 32.0783681,46.4961907 31.7413517,46.2533955 L31.6441143,46.1736191 L26.7656941,41.6327409 L24.1315269,42.7191625 L24.1315269,49.224041 C24.1315269,49.7060947 23.7876213,50.1195385 23.3136277,50.2073209 C21.7943134,50.4886938 20.2438474,50.6313977 18.6756757,50.6313977 C18.1628398,50.6313977 17.7401685,50.2453576 17.6824034,49.7480189 L17.6756757,49.6313977 L17.675,44.999 L4.6,45 C2.10395949,45 0.110367423,42.8598539 0.004428948,40.2210219 L2.84217094e-14,40 L2.84217094e-14,23 C2.84217094e-14,20.3347298 1.92613151,18.1225493 4.39318939,18.0049189 L4.6,18 L5,17.9992884 L5,16.0383258 C5,8.83940416 9.36433954,5.03438249 17.6750945,4.80243186 L17.6756757,1 C17.6756757,0.44771525 18.1233909,-1.42108547e-14 18.6756757,-1.42108547e-14 Z M19.7007209,2.02211005 L19.7,17.089 L19.9260988,17.1206285 C23.915297,17.7235995 26.972973,21.1668827 26.972973,25.3243243 C26.972973,29.5597525 23.7995075,33.0539781 19.7006377,33.5589399 L19.7,48.609 L20.2938954,48.5761596 C20.7051666,48.5479842 21.1146403,48.5090696 21.5220333,48.4595063 L22.1315269,48.3771861 L22.1315269,42.0498844 C22.1315269,41.6853705 22.3294101,41.3532525 22.6419393,41.1778989 L22.7502477,41.1254245 L26.5961798,39.5392292 C26.9174058,39.4067445 27.2810734,39.4514343 27.5588849,39.6500585 L27.6587892,39.7317129 L32.4128804,44.1568644 C34.3339988,42.7536688 36.0319606,41.0641596 37.4441663,39.1518555 L37.7649588,38.7066285 L32.7776338,33.8822179 C32.4895903,33.6035834 32.3985898,33.1837513 32.5352598,32.8157387 L32.5892907,32.6952518 L34.1316552,29.784524 C34.2857615,29.4936969 34.571501,29.299722 34.8931527,29.2602069 L35.0152684,29.2527416 L42.0573057,29.2527416 C42.3228685,27.156429 42.3393767,22.97939 42.1138176,20.8924938 L42.0799489,20.6090347 L35.0152684,20.6090347 C34.6790293,20.6090347 34.3683709,20.4403906 34.1843436,20.1654573 L34.1214666,20.0574969 L32.1229178,16.0743141 C31.9480961,15.7258878 31.9930423,15.3118165 32.2283808,15.0105459 L32.3138383,14.9145449 L36.725282,10.5553561 C35.2825539,8.79329414 33.5894303,7.24933419 31.7034033,5.97623098 L31.227911,5.66362856 L27.0646848,10.3220491 C26.8140745,10.6024682 26.4303182,10.7160322 26.0724308,10.6248279 L25.9543112,10.5867904 L22.765492,9.33761485 C22.4206472,9.20252669 22.1819689,8.88972537 22.1376817,8.52852416 L22.1302399,8.40650855 L22.1302399,2.25402054 C21.3283685,2.13496671 20.517798,2.0574295 19.7007209,2.02211005 Z M17.675,6.802 L17.6990898,6.80199965 C10.5516656,7.00044638 7.11732188,9.92195945 7.00295671,15.7350682 L7,16.0383258 L7,18.931366 L6.98,18.9312884 L6.98072933,20 L4.6,20 C3.24118682,20 2.08837323,21.2249857 2.00484358,22.8149695 L2,23 L2,40 C2,41.6167883 3.10248717,42.9016551 4.44417718,42.9946126 L4.6,43 L17.675,42.999 L17.674,38.999 L15.2714286,39 C13.3626103,39 11.8035488,37.5025133 11.7049505,35.6182463 L11.7,35.4285714 L11.7,28.5714286 C11.7,26.6626103 13.1974867,25.1035488 15.0817537,25.0049505 L15.2714286,25 L17.699,24.9992884 L17.699,18.9312884 L12.1708602,18.931366 L12.1709709,15.7146048 C12.2099108,13.0978791 14.187812,11.7185718 17.6754406,11.5287905 L17.675,6.802 Z M17.699,26.9992884 L15.2714286,27 C14.4517679,27 13.7786797,27.6275515 13.7064219,28.4283965 L13.7,28.5714286 L13.7,35.4285714 C13.7,36.2482321 14.3275515,36.9213203 15.1283965,36.9935781 L15.2714286,37 L17.674,36.999 L17.6749708,33.561 L17.6599708,33.5599512 C17.6599708,33.5599512 17.6599708,32.1745368 17.699626,31.7047423 L17.699,26.9992884 Z M19.7011231,19.1101006 L19.7011231,31.538548 C22.6912937,31.0488467 24.972973,28.4530429 24.972973,25.3243243 C24.972973,22.1956057 22.6912937,19.5998019 19.7011231,19.1101006 Z M17.675,13.529 L17.6988194,13.527495 C15.3218039,13.6559879 14.266877,14.3602575 14.1769043,15.5906154 L14.1708602,15.7294843 L14.1708602,16.931366 L17.675,16.931 L17.675,13.529 Z" id="Combined-Shape"></path>
                        </g>
                    </g>
                </g>
            </g>
        </g>
    </g>
</svg>